<svg xmlns="http://www.w3.org/2000/svg" viewBox="0 0 64 64"><defs><style>.cls-1{opacity:.4}.cls-1,.cls-2{fill:#131313}</style></defs><rect id="BG-Color" width="64" height="64" rx="4" ry="4" style="fill:#ffc857"/><g id="ExtentionIcons"><circle cx="23" cy="33" r="3" class="cls-2"/><path d="M46 12H18c-3.309 0-6 2.691-6 6v28c0 3.309 2.691 6 6 6h28c3.309 0 6-2.691 6-6V18c0-3.309-2.691-6-6-6m2 34c0 1.103-.897 2-2 2H18c-1.103 0-2-.897-2-2V26h32z" class="cls-2"/><circle cx="32" cy="33" r="3" class="cls-1"/><circle cx="23" cy="41" r="3" class="cls-1"/><circle cx="32" cy="41" r="3" class="cls-1"/><circle cx="41" cy="33" r="3" class="cls-1"/></g></svg>